/* XPM */
static char *_4cdf8f24e584466b5e27c8b46161a775ZE8z4Rjeb9a4t40[] = {
/* columns rows colors chars-per-pixel */
"100 100 5 1 ",
"  c #5D2C28",
". c #37474F",
"X c #8A4836",
"o c #BF6F4A",
"O c #E69C69",
/* pixels */
"....................................................................................................",
"....................................................................................................",
"....................................................................................................",
"...XXXXXXXXXXXXXXXXXXXXXXXXXXXXXXXXXXXXXXXXXXXXXXXXXXXXXXXXXXXXXXXXXXXXXXXXXXXXXXXXXXXXXXXXXXXXXXX..",
"...XXXXXXXXXXXXXXXXXXXXXXXXXXXXXXXXXXXXXXXXXXXXXXXXXXXXXXXXXXXXXXXXXXXXXXXXXXXXXXXXXXXXXXXXXXXXXXX..",
"...XXXXXXXXXXXXXXXXXXXXXXXXXXXXXXXXXXXXXXXXXXXXXXXXXXXXXXXXXXXXXXXXXXXXXXXXXXXXXXXXXXXXXXXXXXXXXXX..",
"...XXXXXXXXXXXXXXXXXXXXXXXXXXXXXXXXXXXXXXXXXXXXXXXXXXXXXXXXXXXXXXXXXXXXXXXXXXXXXXXXXXXXXXXXXXXXXXX..",
"...XXXXXXXXXXXXXXXXXXXXXXXXXXXXXXXXXXXXXXXXXXXXXXXXXXXXXXXXXXXXXXXXXXXXXXXXXXXXXXXXXXXXXXXXXXXXXXX..",
"...XXXXXXXXXXXXXXXXXXXXXXXXXXXXXXXXXXXXXXXXXXXXXXXXXXXXXXXXXXXXXXXXXXXXXXXXXXXXXXXXXXXXXXXXXXXXXXX..",
"...XXXXXXXXXXXXXXXXXXXXXXXXXXXXXXXXXXXXXXXXXXXXXXXXXXXXXXXXXXXXXXXXXXXXXXXXXXXXXXXXXXXXXXXXXXXXXXX..",
"...XXXXXXXXXXXXXXXXXXXXXXXXXXXXXXXXXXXXXXXXXXXXXXXXXXXXXXXXXXXXXXXXXXXXXXXXXXXXXXXXXXXXXXXXXXXXXXX..",
"...XXXXXXXXXXXXXXXXXXXXXXXXXXXXXXXXXXXXXXXXXXXXXXXXXXXXXXXXXXXXXXXXXXXXXXXXXXXXXXXXXXXXXXXXXXXXXXX..",
"...XXXXXXXXXXXXXXXXXXXXXXXXXXXXXXXXXXXXXXXXXXXXXXXXXXXXXXXXXXXXXXXXXXXXXXXXXXXXXXXXXXXXXXXXXXXXXXX..",
"...XXXXXXXXXXXXXXXXXXXXXXXXXXXXXXXXXXXXXXXXXXXXXXXXXXXXXXXXXXXXXXXXXXXXXXXXXXXXXXXXXXXXXXXXXXXXXXX..",
"...XXXXXXXXXXXXXXXXXXXXXXXXXXXXXXXXXXXXXXXXXXXXXXXXXXXXXXXXXXXXXXXXXXXXXXXXXXXXXXXXXXXXXXXXXXXXXXX..",
"...XXXXXXXXXXXXXXXXXXX                                                         OOOOOOXXXXXXXXXXXXX..",
"...XXXXXXXXXXXXXXXXXXX                                                         OOOOOOXXXXXXXXXXXXX..",
"...XXXXXXXXXXXXXXXXXXX                                                         OOOOOOXXXXXXXXXXXXX..",
"...XXXXXXXXXXXXXXXXXXX      ooooooooooooo      ooooooooooooo      oooooooooooooOOOOOOXXXXXXXXXXXXX..",
"...XXXXXXXXXXXXXXXXXXX      ooooooooooooo      ooooooooooooo      oooooooooooooOOOOOOXXXXXXXXXXXXX..",
"...XXXXXXXXXXXXXXXXXXX      ooooooooooooo      ooooooooooooo      oooooooooooooOOOOOOXXXXXXXXXXXXX..",
"...XXXXXXXXXXXXXXXXXXX      ooooooooooooo      ooooooooooooo      oooooooooooooOOOOOOXXXXXXOOOOOOO..",
"...XXXXXXXXXXXXXXXXXXX      ooooooooooooo      ooooooooooooo      oooooooooooooOOOOOOXXXXXXOOOOOOO..",
"...XXXXXXXXXXXXXXXXXXX      ooooooooooooo      ooooooooooooo      oooooooooooooOOOOOOXXXXXXOOOOOOO..",
"...XXXXXXXXXXXXXXXXXXX      ooooooooooooo      ooooooooooooo      oooooooooooooOOOOOOXXXXXX       ..",
"...XXXXXXXXXXXXXXXXXXX      ooooooooooooo      ooooooooooooo      oooooooooooooOOOOOOXXXXXX       ..",
"...XXXXXXXXXXXXXXXXXXX      ooooooooooooo      ooooooooooooo      oooooooooooooOOOOOOXXXXXX       ..",
"...XXXXXXXXXXXXXXXXXXX      ooooooooooooo      ooooooooooooo      oooooooooooooOOOOOOXXXXXX       ..",
"...XXXXXXXXXXXXXXXXXXX      ooooooooooooo      ooooooooooooo      oooooooooooooOOOOOOXXXXXX       ..",
"...XXXXXXXXXXXXXXXXXXX      ooooooooooooo      ooooooooooooo      oooooooooooooOOOOOOXXXXXX       ..",
"...XXXXXXXXXXXXXXXXXXX      ooooooooooooo      ooooooooooooo      oooooooooooooOOOOOOXXXXXX       ..",
"...XXXXXXXXXXXXXXXXXXX      ooooooooooooo      ooooooooooooo      oooooooooooooOOOOOOXXXXXX       ..",
"...XXXXXXXXXXXXXXXXXXX      ooooooooooooo      ooooooooooooo      oooooooooooooOOOOOOXXXXXX       ..",
"...XXXXXXXXXXXXXXXXXXX      ooooooooooooo      ooooooooooooo      oooooooooooooOOOOOOXXXXXX       ..",
"...XXXXXXXXXXXXXXXXXXX      ooooooooooooo      ooooooooooooo      oooooooooooooOOOOOOXXXXXX       ..",
"...XXXXXXXXXXXXXXXXXXX      ooooooooooooo      ooooooooooooo      oooooooooooooOOOOOOXXXXXX       ..",
"...XXXXXXXXXXXXXXXXXXX      ooooooooooooo      ooooooooooooo      oooooooooooooOOOOOOXXXXXXXXXXXXX..",
"...XXXXXXXXXXXXXXXXXXX      ooooooooooooo      ooooooooooooo      oooooooooooooOOOOOOXXXXXXXXXXXXX..",
"...XXXXXXXXXXXXXXXXXXX      ooooooooooooo      ooooooooooooo      oooooooooooooOOOOOOXXXXXXXXXXXXX..",
"...XXXXXXXXXXXXXXXXXXX      ooooooooooooo      ooooooooooooo      oooooooooooooOOOOOOXXXXXXXXXXXXX..",
"...XXXXXXXXXXXXXXXXXXX      ooooooooooooo      ooooooooooooo      oooooooooooooOOOOOOXXXXXXXXXXXXX..",
"...XXXXXXXXXXXXXXXXXXX      ooooooooooooo      ooooooooooooo      oooooooooooooOOOOOOXXXXXXXXXXXXX..",
"...XXXXXXXXXXXXXXXXXXX      OOOOOOOOOOOOOOOOOOOOOOOOOOOOOOOOOOOOOOOOOOOOOOOOOOOOOOOOOXXXXXXXXXXXXX..",
"...XXXXXXXXXXXXXXXXXXX      OOOOOOOOOOOOOOOOOOOOOOOOOOOOOOOOOOOOOOOOOOOOOOOOOOOOOOOOOXXXXXXXXXXXXX..",
"...XXXXXXXXXXXXXXXXXXX      OOOOOOOOOOOOOOOOOOOOOOOOOOOOOOOOOOOOOOOOOOOOOOOOOOOOOOOOOXXXXXXXXXXXXX..",
"...XXXXXXXXXXXXXXXXXXXXXXXXXXXXXXXXXXXXXXXXXXXXXXXXXXXXXXXXXXXXXXXXXXXXXXXXXXXXXXXXXXXXXXXXXXXXXXX..",
"...XXXXXXXXXXXXXXXXXXXXXXXXXXXXXXXXXXXXXXXXXXXXXXXXXXXXXXXXXXXXXXXXXXXXXXXXXXXXXXXXXXXXXXXXXXXXXXX..",
"...XXXXXXXXXXXXXXXXXXXXXXXXXXXXXXXXXXXXXXXXXXXXXXXXXXXXXXXXXXXXXXXXXXXXXXXXXXXXXXXXXXXXXXXXXXXXXXX..",
"...XXXXXXXXXXXXXXXXXXXXXXXXXXXXXXXXXXXXXXXXXXXXXXXXXXXXXXXXXXXXXXXXXXXXXXXXXXXXXXXXXXXXXXXXXXXXXXX..",
"...XXXXXXXXXXXXXXXXXXXXXXXXXXXXXXXXXXXXXXXXXXXXXXXXXXXXXXXXXXXXXXXXXXXXXXXXXXXXXXXXXXXXXXXXXXXXXXX..",
"...XXXXXXXXXXXXXXXXXXXXXXXXXXXXXXXXXXXXXXXXXXXXXXXXXXXXXXXXXXXXXXXXXXXXXXXXXXXXXXXXXXXXXXXXXXXXXXX..",
"...XXXXXXXXXXXXXXXXXXXXXXXXXXXXXXXXXXXXXXXXXXXXXXXXXXXXXXXXXXXXXXXXXXXXXXXXXXXXXXXXXXXXXXXXXXXXXXX..",
"...XXXXXXXXXXXXXXXXXXXXXXXXXXXXXXXXXXXXXXXXXXXXXXXXXXXXXXXXXXXXXXXXXXXXXXXXXXXXXXXXXXXXXXXXXXXXXXX..",
"...XXXXXXXXXXXXXXXXXXXXXXXXXXXXXXXXXXXXXXXXXXXXXXXXXXXXXXXXXXXXXXXXXXXXXXXXXXXXXXXXXXXXXXXXXXXXXXX..",
"...XXXXXXXXXXXXXXXXXXXXXXXXXXXXXXXXXXXXXXXXXXXXXXXXXXXXXXXXXXXXXXXXXXXXXXXXXXXXXXXXXXXXXXXXXXXXXXX..",
"...XXXXXXXXXXXXXXXXXXXXXXXXXXXXXXXXXXXXXXXXXXXXXXXXXXXXXXXXXXXXXXXXXXXXXXXXXXXXXXXXXXXXXXXXXXXXXXX..",
"...XXXXXXXXXXXXXXXXXXXXXXXXXXXXXXXXXXXXXXXXXXXXXXXXXXXXXXXXXXXXXXXXXXXXXXXXXXXXXXXXXXXXXXXXXXXXXXX..",
"...XXXXXXXXXXXXXXXXXXXXXXXXXXXXXXXXXXXXXXXXXXXXXXXXXXXXXXXXXXXXXXXXXXXXXXXXXXXXXXXXXXXXXXXXXXXXXXX..",
"...XXXXXXXXXXXXXXXXXXXXXXXXXXXXXXXXXXXXXXXXXXXXXXXXXXXXXXXXXXXXXXXXXXXXXXXXXXXXXXXXXXXXXXXXXXXXXXX..",
"...XXXXXXXXXXXXXXXXXXX                                                         OOOOOOXXXXXXXXXXXXX..",
"...XXXXXXXXXXXXXXXXXXX                                                         OOOOOOXXXXXXXXXXXXX..",
"...XXXXXXXXXXXXXXXXXXX                                                         OOOOOOXXXXXXXXXXXXX..",
"...XXXXXXXXXXXXXXXXXXX      ooooooooooooo      ooooooooooooo      oooooooooooooOOOOOOXXXXXXXXXXXXX..",
"...XXXXXXXXXXXXXXXXXXX      ooooooooooooo      ooooooooooooo      oooooooooooooOOOOOOXXXXXXXXXXXXX..",
"...XXXXXXXXXXXXXXXXXXX      ooooooooooooo      ooooooooooooo      oooooooooooooOOOOOOXXXXXXXXXXXXX..",
"...XXXXXXXXXXXXXXXXXXX      ooooooooooooo      ooooooooooooo      oooooooooooooOOOOOOXXXXXXOOOOOOO..",
"...XXXXXXXXXXXXXXXXXXX      ooooooooooooo      ooooooooooooo      oooooooooooooOOOOOOXXXXXXOOOOOOO..",
"...XXXXXXXXXXXXXXXXXXX      ooooooooooooo      ooooooooooooo      oooooooooooooOOOOOOXXXXXXOOOOOOO..",
"...XXXXXXXXXXXXXXXXXXX      ooooooooooooo      ooooooooooooo      oooooooooooooOOOOOOXXXXXX       ..",
"...XXXXXXXXXXXXXXXXXXX      ooooooooooooo      ooooooooooooo      oooooooooooooOOOOOOXXXXXX       ..",
"...XXXXXXXXXXXXXXXXXXX      ooooooooooooo      ooooooooooooo      oooooooooooooOOOOOOXXXXXX       ..",
"...XXXXXXXXXXXXXXXXXXX      ooooooooooooo      ooooooooooooo      oooooooooooooOOOOOOXXXXXX       ..",
"...XXXXXXXXXXXXXXXXXXX      ooooooooooooo      ooooooooooooo      oooooooooooooOOOOOOXXXXXX       ..",
"...XXXXXXXXXXXXXXXXXXX      ooooooooooooo      ooooooooooooo      oooooooooooooOOOOOOXXXXXX       ..",
"...XXXXXXXXXXXXXXXXXXX      ooooooooooooo      ooooooooooooo      oooooooooooooOOOOOOXXXXXX       ..",
"...XXXXXXXXXXXXXXXXXXX      ooooooooooooo      ooooooooooooo      oooooooooooooOOOOOOXXXXXX       ..",
"...XXXXXXXXXXXXXXXXXXX      ooooooooooooo      ooooooooooooo      oooooooooooooOOOOOOXXXXXX       ..",
"...XXXXXXXXXXXXXXXXXXX      ooooooooooooo      ooooooooooooo      oooooooooooooOOOOOOXXXXXX       ..",
"...XXXXXXXXXXXXXXXXXXX      ooooooooooooo      ooooooooooooo      oooooooooooooOOOOOOXXXXXX       ..",
"...XXXXXXXXXXXXXXXXXXX      ooooooooooooo      ooooooooooooo      oooooooooooooOOOOOOXXXXXX       ..",
"...XXXXXXXXXXXXXXXXXXX      ooooooooooooo      ooooooooooooo      oooooooooooooOOOOOOXXXXXXXXXXXXX..",
"...XXXXXXXXXXXXXXXXXXX      ooooooooooooo      ooooooooooooo      oooooooooooooOOOOOOXXXXXXXXXXXXX..",
"...XXXXXXXXXXXXXXXXXXX      ooooooooooooo      ooooooooooooo      oooooooooooooOOOOOOXXXXXXXXXXXXX..",
"...XXXXXXXXXXXXXXXXXXX      ooooooooooooo      ooooooooooooo      oooooooooooooOOOOOOXXXXXXXXXXXXX..",
"...XXXXXXXXXXXXXXXXXXX      ooooooooooooo      ooooooooooooo      oooooooooooooOOOOOOXXXXXXXXXXXXX..",
"...XXXXXXXXXXXXXXXXXXX      ooooooooooooo      ooooooooooooo      oooooooooooooOOOOOOXXXXXXXXXXXXX..",
"...XXXXXXXXXXXXXXXXXXX      OOOOOOOOOOOOOOOOOOOOOOOOOOOOOOOOOOOOOOOOOOOOOOOOOOOOOOOOOXXXXXXXXXXXXX..",
"...XXXXXXXXXXXXXXXXXXX      OOOOOOOOOOOOOOOOOOOOOOOOOOOOOOOOOOOOOOOOOOOOOOOOOOOOOOOOOXXXXXXXXXXXXX..",
"...XXXXXXXXXXXXXXXXXXX      OOOOOOOOOOOOOOOOOOOOOOOOOOOOOOOOOOOOOOOOOOOOOOOOOOOOOOOOOXXXXXXXXXXXXX..",
"...XXXXXXXXXXXXXXXXXXXXXXXXXXXXXXXXXXXXXXXXXXXXXXXXXXXXXXXXXXXXXXXXXXXXXXXXXXXXXXXXXXXXXXXXXXXXXXX..",
"...XXXXXXXXXXXXXXXXXXXXXXXXXXXXXXXXXXXXXXXXXXXXXXXXXXXXXXXXXXXXXXXXXXXXXXXXXXXXXXXXXXXXXXXXXXXXXXX..",
"...XXXXXXXXXXXXXXXXXXXXXXXXXXXXXXXXXXXXXXXXXXXXXXXXXXXXXXXXXXXXXXXXXXXXXXXXXXXXXXXXXXXXXXXXXXXXXXX..",
"...XXXXXXXXXXXXXXXXXXXXXXXXXXXXXXXXXXXXXXXXXXXXXXXXXXXXXXXXXXXXXXXXXXXXXXXXXXXXXXXXXXXXXXXXXXXXXXX..",
"...XXXXXXXXXXXXXXXXXXXXXXXXXXXXXXXXXXXXXXXXXXXXXXXXXXXXXXXXXXXXXXXXXXXXXXXXXXXXXXXXXXXXXXXXXXXXXXX..",
"...XXXXXXXXXXXXXXXXXXXXXXXXXXXXXXXXXXXXXXXXXXXXXXXXXXXXXXXXXXXXXXXXXXXXXXXXXXXXXXXXXXXXXXXXXXXXXXX..",
"...XXXXXXXXXXXXXXXXXXXXXXXXXXXXXXXXXXXXXXXXXXXXXXXXXXXXXXXXXXXXXXXXXXXXXXXXXXXXXXXXXXXXXXXXXXXXXXX..",
"...XXXXXXXXXXXXXXXXXXXXXXXXXXXXXXXXXXXXXXXXXXXXXXXXXXXXXXXXXXXXXXXXXXXXXXXXXXXXXXXXXXXXXXXXXXXXXXX..",
"...XXXXXXXXXXXXXXXXXXXXXXXXXXXXXXXXXXXXXXXXXXXXXXXXXXXXXXXXXXXXXXXXXXXXXXXXXXXXXXXXXXXXXXXXXXXXXXX..",
"....................................................................................................",
"...................................................................................................."
};
