/* XPM */
static char *east_wall[] = {
/* columns rows colors chars-per-pixel */
"64 64 4 1",
"  c #800080",
". c #DDA0DD",
"# c #FF69B4",
"+ c #8B008B",
/* pixels */
"................................................................",
"................................................................",
"................................................................",
"................................................................",
"++#+++#+++#+++#+++#+++#+++#+++#+++#+++#+++#+++#+++#+++#+++#+++#+",
"++#+++#+++#+++#+++#+++#+++#+++#+++#+++#+++#+++#+++#+++#+++#+++#+",
"++#+++#+++#+++#+++#+++#+++#+++#+++#+++#+++#+++#+++#+++#+++#+++#+",
"++#+++#+++#+++#+++#+++#+++#+++#+++#+++#+++#+++#+++#+++#+++#+++#+",
"................................................................",
"................................................................",
"................................................................",
"................................................................",
"#+#+#+#+#+#+#+#+#+#+#+#+#+#+#+#+#+#+#+#+#+#+#+#+#+#+#+#+#+#+#+#+",
"#+#+#+#+#+#+#+#+#+#+#+#+#+#+#+#+#+#+#+#+#+#+#+#+#+#+#+#+#+#+#+#+",
"#+#+#+#+#+#+#+#+#+#+#+#+#+#+#+#+#+#+#+#+#+#+#+#+#+#+#+#+#+#+#+#+",
"#+#+#+#+#+#+#+#+#+#+#+#+#+#+#+#+#+#+#+#+#+#+#+#+#+#+#+#+#+#+#+#+",
"................................................................",
"................................................................",
"................................................................",
"................................................................",
"++#+++#+++#+++#+++#+++#+++#+++#+++#+++#+++#+++#+++#+++#+++#+++#+",
"++#+++#+++#+++#+++#+++#+++#+++#+++#+++#+++#+++#+++#+++#+++#+++#+",
"++#+++#+++#+++#+++#+++#+++#+++#+++#+++#+++#+++#+++#+++#+++#+++#+",
"++#+++#+++#+++#+++#+++#+++#+++#+++#+++#+++#+++#+++#+++#+++#+++#+",
"................................................................",
"................................................................",
"................................................................",
"................................................................",
"#+#+#+#+#+#+#+#+#+#+#+#+#+#+#+#+#+#+#+#+#+#+#+#+#+#+#+#+#+#+#+#+",
"#+#+#+#+#+#+#+#+#+#+#+#+#+#+#+#+#+#+#+#+#+#+#+#+#+#+#+#+#+#+#+#+",
"#+#+#+#+#+#+#+#+#+#+#+#+#+#+#+#+#+#+#+#+#+#+#+#+#+#+#+#+#+#+#+#+",
"#+#+#+#+#+#+#+#+#+#+#+#+#+#+#+#+#+#+#+#+#+#+#+#+#+#+#+#+#+#+#+#+",
"................................................................",
"................................................................",
"................................................................",
"................................................................",
"++#+++#+++#+++#+++#+++#+++#+++#+++#+++#+++#+++#+++#+++#+++#+++#+",
"++#+++#+++#+++#+++#+++#+++#+++#+++#+++#+++#+++#+++#+++#+++#+++#+",
"++#+++#+++#+++#+++#+++#+++#+++#+++#+++#+++#+++#+++#+++#+++#+++#+",
"++#+++#+++#+++#+++#+++#+++#+++#+++#+++#+++#+++#+++#+++#+++#+++#+",
"................................................................",
"................................................................",
"................................................................",
"................................................................",
"#+#+#+#+#+#+#+#+#+#+#+#+#+#+#+#+#+#+#+#+#+#+#+#+#+#+#+#+#+#+#+#+",
"#+#+#+#+#+#+#+#+#+#+#+#+#+#+#+#+#+#+#+#+#+#+#+#+#+#+#+#+#+#+#+#+",
"#+#+#+#+#+#+#+#+#+#+#+#+#+#+#+#+#+#+#+#+#+#+#+#+#+#+#+#+#+#+#+#+",
"#+#+#+#+#+#+#+#+#+#+#+#+#+#+#+#+#+#+#+#+#+#+#+#+#+#+#+#+#+#+#+#+",
"................................................................",
"................................................................",
"................................................................",
"................................................................",
"++#+++#+++#+++#+++#+++#+++#+++#+++#+++#+++#+++#+++#+++#+++#+++#+",
"++#+++#+++#+++#+++#+++#+++#+++#+++#+++#+++#+++#+++#+++#+++#+++#+",
"++#+++#+++#+++#+++#+++#+++#+++#+++#+++#+++#+++#+++#+++#+++#+++#+",
"++#+++#+++#+++#+++#+++#+++#+++#+++#+++#+++#+++#+++#+++#+++#+++#+",
"................................................................",
"................................................................",
"................................................................",
"................................................................",
"#+#+#+#+#+#+#+#+#+#+#+#+#+#+#+#+#+#+#+#+#+#+#+#+#+#+#+#+#+#+#+#+",
"#+#+#+#+#+#+#+#+#+#+#+#+#+#+#+#+#+#+#+#+#+#+#+#+#+#+#+#+#+#+#+#+",
"#+#+#+#+#+#+#+#+#+#+#+#+#+#+#+#+#+#+#+#+#+#+#+#+#+#+#+#+#+#+#+#+",
"#+#+#+#+#+#+#+#+#+#+#+#+#+#+#+#+#+#+#+#+#+#+#+#+#+#+#+#+#+#+#+#+",
"................................................................",
"................................................................"
};
```# Cub3D Test Maps Folder Structure

## Folder Organization