/* XPM */
static char * cadre_damier2_xpm[] = {
"64 64 2 1",
"R c #c27f70",
"W c #dddddd",
"RRRRRRRRRRRRRRRRRRRRRRRRRRRRRRRRRRRRRRRRRRRRRRRRRRRRRRRRRRRRRRRR",
"RWWRRWWRRWWRRWWRRWWRRWWRRWWRRWWRRWWRRWWRRWWRRWWRRWWRRWWRRWWRRWWR",
"RWWRRWWRRWWRRWWRRWWRRWWRRWWRRWWRRWWRRWWRRWWRRWWRRWWRRWWRRWWRRWWR",
"RRRWWRRWWRRRRRRRRRRRRRRRRRRRRRRRWRRWWRRWWRRWWRRWWRRWWRRWWRRWWRRR",
"RRRWWRRWWRRRRRRRRRRRRRRRRRRRRRRRWRRWWRRWWRRWWRRWWRRWWRRWWRRWWRRR",
"RWWRRWWRRRRRRWWRRWWRRWWRRWWRRWWRRWWRRWWRRWWRRWWRRWWRRWWRRWWRRWWR",
"RWWRRWWRRRRRRWWRRWWRRWWRRWWRRWWRRWWRRWWRRWWRRWWRRWWRRWWRRWWRRWWR",
"RRRWWRRWWRRWWRRWWRRWWRRWWRRWWRRWWRRWWRRWWRRWWRRWWRRWWRRWWRRWWRRR",
"RRRWWRRWWRRWWRRWWRRWWRRWWRRWWRRWWRRWWRRWWRRWWRRWWRRWWRRWWRRWWRRR",
"RWWRRWWRRRRRRWWRRWWRRWWRRWWRRWWRRWWRRWWRRWWRRWWRRWWRRWWRRWWRRWWR",
"RWWRRWWRRRRRRWWRRWWRRWWRRWWRRWWRRWWRRWWRRWWRRWWRRWWRRWWRRWWRRWWR",
"RRRWWRRWWRRWWRRWWRRWWRRWWRRWWRRWWRRWWRRWWRRWWRRWWRRWWRRWWRRWWRRR",
"RRRWWRRWWRRWWRRWWRRWWRRWWRRWWRRWWRRWWRRWWRRWWRRWWRRWWRRWWRRWWRRR",
"RWWRRWWRRRRRRWWRRWWRRWWRRWWRRWWRRWWRRWWRRWWRRWWRRWWRRWWRRWWRRWWR",
"RWWRRWWRRRRRRWWRRWWRRWWRRWWRRWWRRWWRRWWRRWWRRWWRRWWRRWWRRWWRRWWR",
"RRRWWRRWWRRWWRRWWRRWWRRWWRRWWRRWWRRWWRRWWRRWWRRWWRRWWRRWWRRWWRRR",
"RRRWWRRWWRRWWRRWWRRWWRRWWRRWWRRWWRRWWRRWWRRWWRRWWRRWWRRWWRRWWRRR",
"RWWRRWWRRRRRRWWRRWWRRWWRRWWRRWWRRWWRRWWRRWWRRWWRRWWRRWWRRWWRRWWR",
"RWWRRWWRRRRRRWWRRWWRRWWRRWWRRWWRRWWRRWWRRWWRRWWRRWWRRWWRRWWRRWWR",
"RRRWWRRWWRRWWRRWWRRWWRRWWRRWWRRWWRRWWRRWWRRWWRRWWRRWWRRWWRRWWRRR",
"RRRWWRRWWRRWWRRWWRRWWRRWWRRWWRRWWRRWWRRWWRRWWRRWWRRWWRRWWRRWWRRR",
"RWWRRWWRRRRRRWWRRWWRRWWRRWWRRWWRRWWRRWWRRWWRRWWRRWWRRWWRRWWRRWWR",
"RWWRRWWRRRRRRWWRRWWRRWWRRWWRRWWRRWWRRWWRRWWRRWWRRWWRRWWRRWWRRWWR",
"RRRWWRRWWRRWWRRWWRRWWRRWWRRWWRRWWRRWWRRWWRRWWRRWWRRWWRRWWRRWWRRR",
"RRRWWRRWWRRWWRRWWRRWWRRWWRRWWRRWWRRWWRRWWRRWWRRWWRRWWRRWWRRWWRRR",
"RWWRRWWRRWWRRWWRRWWRRWWRRWWRRWWRRWWRRWWRRWWRRWWRRWWRRWWRRWWRRWWR",
"RWWRRWWRRWWRRWWRRWWRRWWRRWWRRWWRRWWRRWWRRWWRRWWRRWWRRWWRRWWRRWWR",
"RRRWWRRWWRRWWRRWWRRWWRRWWRRWWRRWWRRWWRRWWRRWWRRWWRRWWRRWWRRWWRRR",
"RRRWWRRWWRRWWRRWWRRWWRRWWRRWWRRWWRRWWRRWWRRWWRRWWRRWWRRWWRRWWRRR",
"RWWRRWWRRWWRRWWRRWWRRWWRRWWRRWWRRWWRRWWRRWWRRWWRRWWRRWWRRWWRRWWR",
"RWWRRWWRRWWRRWWRRWWRRWWRRWWRRWWRRWWRRWWRRWWRRWWRRWWRRWWRRWWRRWWR",
"RRRWWRRWWRRWWRRWWRRWWRRWWRRWWRRWWRRWWRRWWRRWWRRWWRRWWRRWWRRWWRRR",
"RRRWWRRWWRRWWRRWWRRWWRRWWRRWWRRWWRRWWRRWWRRWWRRWWRRWWRRWWRRWWRRR",
"RWWRRWWRRWWRRWWRRWWRRWWRRWWRRWWRRWWRRWWRRWWRRWWRRWWRRWWRRWWRRWWR",
"RWWRRWWRRWWRRWWRRWWRRWWRRWWRRWWRRWWRRWWRRWWRRWWRRWWRRWWRRWWRRWWR",
"RRRWWRRWWRRWWRRWWRRWWRRWWRRWWRRWWRRWWRRWWRRWWRRWWRRWWRRWWRRWWRRR",
"RRRWWRRWWRRWWRRWWRRWWRRWWRRWWRRWWRRWWRRWWRRWWRRWWRRWWRRWWRRWWRRR",
"RWWRRWWRRWWRRWWRRWWRRWWRRWWRRWWRRWWRRWWRRWWRRWWRRWWRRWWRRWWRRWWR",
"RWWRRWWRRWWRRWWRRWWRRWWRRWWRRWWRRWWRRWWRRWWRRWWRRWWRRWWRRWWRRWWR",
"RRRWWRRWWRRWWRRWWRRWWRRWWRRWWRRWWRRWWRRWWRRWWRRWWRRWWRRWWRRWWRRR",
"RRRWWRRWWRRWWRRWWRRWWRRWWRRWWRRWWRRWWRRWWRRWWRRWWRRWWRRWWRRWWRRR",
"RWWRRWWRRWWRRWWRRWWRRWWRRWWRRWWRRWWRRWWRRWWRRWWRRWWRRWWRRWWRRWWR",
"RWWRRWWRRWWRRWWRRWWRRWWRRWWRRWWRRWWRRWWRRWWRRWWRRWWRRWWRRWWRRWWR",
"RRRWWRRWWRRWWRRWWRRWWRRWWRRWWRRWWRRWWRRWWRRWWRRWWRRWWRRWWRRWWRRR",
"RRRWWRRWWRRWWRRWWRRWWRRWWRRWWRRWWRRWWRRWWRRWWRRWWRRWWRRWWRRWWRRR",
"RWWRRWWRRWWRRWWRRWWRRWWRRWWRRWWRRWWRRWWRRWWRRWWRRWWRRWWRRWWRRWWR",
"RWWRRWWRRWWRRWWRRWWRRWWRRWWRRWWRRWWRRWWRRWWRRWWRRWWRRWWRRWWRRWWR",
"RRRWWRRWWRRWWRRWWRRWWRRWWRRWWRRWWRRWWRRWWRRWWRRWWRRWWRRWWRRWWRRR",
"RRRWWRRWWRRWWRRWWRRWWRRWWRRWWRRWWRRWWRRWWRRWWRRWWRRWWRRWWRRWWRRR",
"RWWRRWWRRWWRRWWRRWWRRWWRRWWRRWWRRWWRRWWRRWWRRWWRRWWRRWWRRWWRRWWR",
"RWWRRWWRRWWRRWWRRWWRRWWRRWWRRWWRRWWRRWWRRWWRRWWRRWWRRWWRRWWRRWWR",
"RRRWWRRWWRRWWRRWWRRWWRRWWRRWWRRWWRRWWRRWWRRWWRRWWRRWWRRWWRRWWRRR",
"RRRWWRRWWRRWWRRWWRRWWRRWWRRWWRRWWRRWWRRWWRRWWRRWWRRWWRRWWRRWWRRR",
"RWWRRWWRRWWRRWWRRWWRRWWRRWWRRWWRRWWRRWWRRWWRRWWRRWWRRWWRRWWRRWWR",
"RWWRRWWRRWWRRWWRRWWRRWWRRWWRRWWRRWWRRWWRRWWRRWWRRWWRRWWRRWWRRWWR",
"RRRWWRRWWRRWWRRWWRRWWRRWWRRWWRRWWRRWWRRWWRRWWRRWWRRWWRRWWRRWWRRR",
"RRRWWRRWWRRWWRRWWRRWWRRWWRRWWRRWWRRWWRRWWRRWWRRWWRRWWRRWWRRWWRRR",
"RWWRRWWRRWWRRWWRRWWRRWWRRWWRRWWRRWWRRWWRRWWRRWWRRWWRRWWRRWWRRWWR",
"RWWRRWWRRWWRRWWRRWWRRWWRRWWRRWWRRWWRRWWRRWWRRWWRRWWRRWWRRWWRRWWR",
"RRRWWRRWWRRWWRRWWRRWWRRWWRRWWRRWWRRWWRRWWRRWWRRWWRRWWRRWWRRWWRRR",
"RRRWWRRWWRRWWRRWWRRWWRRWWRRWWRRWWRRWWRRWWRRWWRRWWRRWWRRWWRRWWRRR",
"RWWRRWWRRWWRRWWRRWWRRWWRRWWRRWWRRWWRRWWRRWWRRWWRRWWRRWWRRWWRRWWR",
"RWWRRWWRRWWRRWWRRWWRRWWRRWWRRWWRRWWRRWWRRWWRRWWRRWWRRWWRRWWRRWWR",
"RRRRRRRRRRRRRRRRRRRRRRRRRRRRRRRRRRRRRRRRRRRRRRRRRRRRRRRRRRRRRRRR",
};