/* XPM */
static char * cadre_damier2_xpm[] = {
"64 64 2 1",
"R c #707bc2",
"W c #dddddd",
"RRRRRRRRRRRRRRRRRRRRRRRRRRRRRRRRRRRRRRRRRRRRRRRRRRRRRRRRRRRRRRRR",
"RWWRRWWRRWWRRWWRRWWRRWWRRWWRRWWRRWWRRWWRRWWRRWWRRWWRRWWRRWWRRWWR",
"RWWRRWWRRWWRRWWRRWWRRWWRRWWRRWWRRWWRRWWRRWWRRWWRRWWRRWWRRWWRRWWR",
"RRRWWRRWWRRWWRRWWRRWWRRWWRRWWRRWWRRWWRRWWRRWWRRWWRRWWRRWWRRWWRRR",
"RRRWWRRWWRRWWRRWWRRWWRRWWRRWWRRWWRRWWRRWWRRWWRRWWRRWWRRWWRRWWRRR",
"RWWRRWWRRWWRRWWRRWWRRWWRRWWRRWWRRWWRRWWRRWWRRWWRRWWRRWWRRWWRRWWR",
"RWWRRWWRRWWRRWWRRWWRRWWRRWWRRWWRRWWRRWWRRWWRRWWRRWWRRWWRRWWRRWWR",
"RRRWWRRWWRRWWRRWWRRWWRRWWRRWWRRWWRRWWRRWWRRWWRRWWRRWWRRWWRRWWRRR",
"RRRWWRRWWRRWWRRWWRRWWRRWWRRWWRRWWRRWWRRWWRRWWRRWWRRWWRRWWRRWWRRR",
"RWWRRWWRRWWRRWWRRWWRRWWRRWWRRWWRRWWRRWWRRWWRRWWRRWWRRWWRRWWRRWWR",
"RWWRRWWRRWWRRWWRRWWRRWWRRWWRRWWRRWWRRWWRRWWRRWWRRWWRRWWRRWWRRWWR",
"RRRWWRRWWRRWWRRWWRRWWRRWWRRWWRRWWRRWWRRWWRRWWRRWWRRWWRRWWRRWWRRR",
"RRRWWRRWWRRWWRRWWRRWWRRWWRRWWRRWWRRWWRRWWRRWWRRWWRRWWRRWWRRWWRRR",
"RWWRRWWRRWWRRWWRRWWRRWWRRWWRRWWRRWWRRWWRRWWRRWWRRWWRRWWRRWWRRWWR",
"RWWRRWWRRWWRRWWRRWWRRWWRRWWRRWWRRWWRRWWRRWWRRWWRRWWRRWWRRWWRRWWR",
"RRRWWRRWWRRWWRRWWRRWWRRWWRRWWRRWWRRWWRRWWRRWWRRWWRRWWRRWWRRWWRRR",
"RRRWWRRWWRRWWRRWWRRWWRRWWRRWWRRWWRRWWRRWWRRWWRRWWRRWWRRWWRRWWRRR",
"RWWRRWWRRWWRRWWRRWWRRWWRRWWRRWWRRWWRRWWRRWWRRWWRRWWRRWWRRWWRRWWR",
"RWWRRWWRRWWRRWWRRWWRRWWRRWWRRWWRRWWRRWWRRWWRRWWRRWWRRWWRRWWRRWWR",
"RRRWWRRWWRRWWRRWWRRWWRRWWRRWWRRWWRRWWRRWWRRWWRRWWRRWWRRWWRRWWRRR",
"RRRWWRRWWRRWWRRWWRRWWRRWWRRWWRRWWRRWWRRWWRRWWRRWWRRWWRRWWRRWWRRR",
"RWWRRWWRRWWRRWWRRWWRRWWRRWWRRWWRRWWRRWWRRWWRRWWRRWWRRWWRRWWRRWWR",
"RWWRRWWRRWWRRWWRRWWRRWWRRWWRRWWRRWWRRWWRRWWRRWWRRWWRRWWRRWWRRWWR",
"RRRWWRRWWRRWWRRWWRRWWRRWWRRWWRRWWRRWWRRWWRRWWRRWWRRWWRRWWRRWWRRR",
"RRRWWRRWWRRWWRRWWRRWWRRWWRRWWRRWWRRWWRRWWRRWWRRWWRRWWRRWWRRWWRRR",
"RWWRRWWRRWWRRWWRRWWRRWWRRWWRRWWRRWWRRWWRRWWRRWWRRWWRRWWRRWWRRWWR",
"RWWRRWWRRWWRRWWRRWWRRWWRRWWRRWWRRWWRRWWRRWWRRWWRRWWRRWWRRWWRRWWR",
"RRRWWRRWWRRWWRRWWRRWWRRWWRRWWRRWWRRWWRRWWRRWWRRWWRRWWRRWWRRWWRRR",
"RRRWWRRWWRRWWRRWWRRWWRRWWRRWWRRWWRRWWRRWWRRWWRRWWRRWWRRWWRRWWRRR",
"RWWRRWWRRWWRRWWRRWWRRWWRRWWRRWWRRWWRRWWRRWWRRWWRRWWRRWWRRWWRRWWR",
"RWWRRWWRRWWRRWWRRWWRRWWRRWWRRWWRRWWRRWWRRWWRRWWRRWWRRWWRRWWRRWWR",
"RRRWWRRWWRRWWRRWWRRWWRRWWRRWWRRWWRRWWRRWWRRWWRRWWRRWWRRWWRRWWRRR",
"RRRWWRRWWRRWWRRWWRRWWRRWWRRWWRRWWRRWWRRWWRRWWRRWWRRWWRRWWRRWWRRR",
"RWWRRWWRRWWRRWWRRWWRRWWRRWWRRWWRRWWRRWWRRWWRRWWRRWWRRWWRRWWRRWWR",
"RWWRRWWRRWWRRWWRRWWRRWWRRWWRRWWRRWWRRWWRRWWRRWWRRWWRRWWRRWWRRWWR",
"RRRWWRRWWRRWWRRWWRRWWRRWWRRWWRRWWRRWWRRWWRRWWRRWWRRWWRRWWRRWWRRR",
"RRRWWRRWWRRWWRRWWRRWWRRWWRRWWRRWWRRWWRRWWRRWWRRWWRRWWRRWWRRWWRRR",
"RWWRRWWRRWWRRWWRRWWRRWWRRWWRRWWRRWWRRWWRRWWRRWWRRWWRRWWRRWWRRWWR",
"RWWRRWWRRWWRRWWRRWWRRWWRRWWRRWWRRWWRRWWRRWWRRWWRRWWRRWWRRWWRRWWR",
"RRRWWRRWWRRWWRRWWRRWWRRWWRRWWRRWWRRWWRRWWRRWWRRWWRRWWRRWWRRWWRRR",
"RRRWWRRWWRRWWRRWWRRWWRRWWRRWWRRWWRRWWRRWWRRWWRRWWRRWWRRWWRRWWRRR",
"RWWRRWWRRWWRRWWRRWWRRWWRRWWRRWWRRWWRRWWRRWWRRWWRRWWRRWWRRWWRRWWR",
"RWWRRWWRRWWRRWWRRWWRRWWRRWWRRWWRRWWRRWWRRWWRRWWRRWWRRWWRRWWRRWWR",
"RRRWWRRWWRRWWRRWWRRWWRRWWRRWWRRWWRRWWRRWWRRWWRRWWRRWWRRWWRRWWRRR",
"RRRWWRRWWRRWWRRWWRRWWRRWWRRWWRRWWRRWWRRWWRRWWRRWWRRWWRRWWRRWWRRR",
"RWWRRWWRRWWRRWWRRWWRRWWRRWWRRWWRRWWRRWWRRWWRRWWRRWWRRWWRRWWRRWWR",
"RWWRRWWRRWWRRWWRRWWRRWWRRWWRRWWRRWWRRWWRRWWRRWWRRWWRRWWRRWWRRWWR",
"RRRWWRRWWRRWWRRWWRRWWRRWWRRWWRRWWRRWWRRWWRRWWRRWWRRWWRRWWRRWWRRR",
"RRRWWRRWWRRWWRRWWRRWWRRWWRRWWRRWWRRWWRRWWRRWWRRWWRRWWRRWWRRWWRRR",
"RWWRRWWRRWWRRWWRRWWRRWWRRWWRRWWRRWWRRWWRRWWRRWWRRWWRRWWRRWWRRWWR",
"RWWRRWWRRWWRRWWRRWWRRWWRRWWRRWWRRWWRRWWRRWWRRWWRRWWRRWWRRWWRRWWR",
"RRRWWRRWWRRWWRRWWRRWWRRWWRRWWRRWWRRWWRRWWRRWWRRWWRRWWRRWWRRWWRRR",
"RRRWWRRWWRRWWRRWWRRWWRRWWRRWWRRWWRRWWRRWWRRWWRRWWRRWWRRWWRRWWRRR",
"RWWRRWWRRWWRRWWRRWWRRWWRRWWRRWWRRWWRRWWRRWWRRWWRRWWRRWWRRWWRRWWR",
"RWWRRWWRRWWRRWWRRWWRRWWRRWWRRWWRRWWRRWWRRWWRRWWRRWWRRWWRRWWRRWWR",
"RRRWWRRWWRRWWRRWWRRWWRRWWRRWWRRWWRRWWRRWWRRWWRRWWRRWWRRWWRRWWRRR",
"RRRWWRRWWRRWWRRWWRRWWRRWWRRWWRRWWRRWWRRWWRRWWRRWWRRWWRRWWRRWWRRR",
"RWWRRWWRRWWRRWWRRWWRRWWRRWWRRWWRRWWRRWWRRWWRRWWRRWWRRWWRRWWRRWWR",
"RWWRRWWRRWWRRWWRRWWRRWWRRWWRRWWRRWWRRWWRRWWRRWWRRWWRRWWRRWWRRWWR",
"RRRWWRRWWRRWWRRWWRRWWRRWWRRWWRRWWRRWWRRWWRRWWRRWWRRWWRRWWRRWWRRR",
"RRRWWRRWWRRWWRRWWRRWWRRWWRRWWRRWWRRWWRRWWRRWWRRWWRRWWRRWWRRWWRRR",
"RWWRRWWRRWWRRWWRRWWRRWWRRWWRRWWRRWWRRWWRRWWRRWWRRWWRRWWRRWWRRWWR",
"RWWRRWWRRWWRRWWRRWWRRWWRRWWRRWWRRWWRRWWRRWWRRWWRRWWRRWWRRWWRRWWR",
"RRRRRRRRRRRRRRRRRRRRRRRRRRRRRRRRRRRRRRRRRRRRRRRRRRRRRRRRRRRRRRRR",
};