/* XPM */
static char *south_wall[] = {
/* columns rows colors chars-per-pixel */
"64 64 3 1",
"  c #228B22",
". c #90EE90",
"# c #006400",
/* pixels */
"................................################################",
"................................################################",
"..##..##..##..##..##..##..##..##................................",
"..##..##..##..##..##..##..##..##................................",
"................................################################",
"................................################################",
"##..##..##..##..##..##..##..##................................##",
"##..##..##..##..##..##..##..##................................##",
"................................################################",
"................................################################",
"..##..##..##..##..##..##..##..##................................",
"..##..##..##..##..##..##..##..##................................",
"................................################################",
"................................################################",
"##..##..##..##..##..##..##..##................................##",
"##..##..##..##..##..##..##..##................................##",
"................................################################",
"................................################################",
"..##..##..##..##..##..##..##..##................................",
"..##..##..##..##..##..##..##..##................................",
"................................################################",
"................................################################",
"##..##..##..##..##..##..##..##................................##",
"##..##..##..##..##..##..##..##................................##",
"................................################################",
"................................################################",
"..##..##..##..##..##..##..##..##................................",
"..##..##..##..##..##..##..##..##................................",
"................................################################",
"................................################################",
"##..##..##..##..##..##..##..##................................##",
"##..##..##..##..##..##..##..##................................##",
"................................################################",
"................................################################",
"..##..##..##..##..##..##..##..##................................",
"..##..##..##..##..##..##..##..##................................",
"................................################################",
"................................################################",
"##..##..##..##..##..##..##..##................................##",
"##..##..##..##..##..##..##..##................................##",
"................................################################",
"................................################################",
"..##..##..##..##..##..##..##..##................................",
"..##..##..##..##..##..##..##..##................................",
"................................################################",
"................................################################",
"##..##..##..##..##..##..##..##................................##",
"##..##..##..##..##..##..##..##................................##",
"................................################################",
"................................################################",
"..##..##..##..##..##..##..##..##................................",
"..##..##..##..##..##..##..##..##................................",
"................................################################",
"................................################################",
"##..##..##..##..##..##..##..##................................##",
"##..##..##..##..##..##..##..##................................##",
"................................################################",
"................................################################",
"..##..##..##..##..##..##..##..##................................",
"..##..##..##..##..##..##..##..##................................",
"................................################################",
"................................################################",
"##..##..##..##..##..##..##..##................................##",
"##..##..##..##..##..##..##..##................................##",
"................................################################",
"................................################################"
};