/* XPM */
static char *west_wall[] = {
/* columns rows colors chars-per-pixel */
"64 64 4 1",
"  c #4169E1",
". c #87CEEB",
"# c #1E90FF",
"+ c #000080",
/* pixels */
"................................................................",
"................................................................",
"++##++##++##++##++##++##++##++##++##++##++##++##++##++##++##++##",
"++##++##++##++##++##++##++##++##++##++##++##++##++##++##++##++##",
"++##++##++##++##++##++##++##++##++##++##++##++##++##++##++##++##",
"++##++##++##++##++##++##++##++##++##++##++##++##++##++##++##++##",
"................................................................",
"................................................................",
"##++##++##++##++##++##++##++##++##++##++##++##++##++##++##++##++",
"##++##++##++##++##++##++##++##++##++##++##++##++##++##++##++##++",
"##++##++##++##++##++##++##++##++##++##++##++##++##++##++##++##++",
"##++##++##++##++##++##++##++##++##++##++##++##++##++##++##++##++",
"................................................................",
"................................................................",
"++##++##++##++##++##++##++##++##++##++##++##++##++##++##++##++##",
"++##++##++##++##++##++##++##++##++##++##++##++##++##++##++##++##",
"++##++##++##++##++##++##++##++##++##++##++##++##++##++##++##++##",
"++##++##++##++##++##++##++##++##++##++##++##++##++##++##++##++##",
"................................................................",
"................................................................",
"##++##++##++##++##++##++##++##++##++##++##++##++##++##++##++##++",
"##++##++##++##++##++##++##++##++##++##++##++##++##++##++##++##++",
"##++##++##++##++##++##++##++##++##++##++##++##++##++##++##++##++",
"##++##++##++##++##++##++##++##++##++##++##++##++##++##++##++##++",
"................................................................",
"................................................................",
"++##++##++##++##++##++##++##++##++##++##++##++##++##++##++##++##",
"++##++##++##++##++##++##++##++##++##++##++##++##++##++##++##++##",
"++##++##++##++##++##++##++##++##++##++##++##++##++##++##++##++##",
"++##++##++##++##++##++##++##++##++##++##++##++##++##++##++##++##",
"................................................................",
"................................................................",
"##++##++##++##++##++##++##++##++##++##++##++##++##++##++##++##++",
"##++##++##++##++##++##++##++##++##++##++##++##++##++##++##++##++",
"##++##++##++##++##++##++##++##++##++##++##++##++##++##++##++##++",
"##++##++##++##++##++##++##++##++##++##++##++##++##++##++##++##++",
"................................................................",
"................................................................",
"++##++##++##++##++##++##++##++##++##++##++##++##++##++##++##++##",
"++##++##++##++##++##++##++##++##++##++##++##++##++##++##++##++##",
"++##++##++##++##++##++##++##++##++##++##++##++##++##++##++##++##",
"++##++##++##++##++##++##++##++##++##++##++##++##++##++##++##++##",
"................................................................",
"................................................................",
"##++##++##++##++##++##++##++##++##++##++##++##++##++##++##++##++",
"##++##++##++##++##++##++##++##++##++##++##++##++##++##++##++##++",
"##++##++##++##++##++##++##++##++##++##++##++##++##++##++##++##++",
"##++##++##++##++##++##++##++##++##++##++##++##++##++##++##++##++",
"................................................................",
"................................................................",
"++##++##++##++##++##++##++##++##++##++##++##++##++##++##++##++##",
"++##++##++##++##++##++##++##++##++##++##++##++##++##++##++##++##",
"++##++##++##++##++##++##++##++##++##++##++##++##++##++##++##++##",
"++##++##++##++##++##++##++##++##++##++##++##++##++##++##++##++##",
"................................................................",
"................................................................",
"##++##++##++##++##++##++##++##++##++##++##++##++##++##++##++##++",
"##++##++##++##++##++##++##++##++##++##++##++##++##++##++##++##++",
"##++##++##++##++##++##++##++##++##++##++##++##++##++##++##++##++",
"##++##++##++##++##++##++##++##++##++##++##++##++##++##++##++##++",
"................................................................",
"................................................................",
"++##++##++##++##++##++##++##++##++##++##++##++##++##++##++##++##",
"++##++##++##++##++##++##++##++##++##++##++##++##++##++##++##++##",
"++##++##++##++##++##++##++##++##++##++##++##++##++##++##++##++##",
"++##++##++##++##++##++##++##++##++##++##++##++##++##++##++##++##",
"................................................................",
"................................................................"
};