/* XPM */
static char * cadre_damier2_xpm[] = {
"64 64 2 1",
"R c #c270bf",
"W c #dddddd",
"RRRRRRRRRRRRRRRRRRRRRRRRRRRRRRRRRRRRRRRRRRRRRRRRRRRRRRRRRRRRRRRR",
"RWWRRWWRRWWRRWWRRWWRRWWRRWWRRWWRRWWRRWWRRWWRRWWRRWWRRWWRRWWRRWWR",
"RWWRRWWRRWWRRWWRRWWRRWWRRWWRRWWRRWWRRWWRRWWRRWWRRWWRRWWRRWWRRWWR",
"RRRWWRRWWRRWWRRWWRRWWRRWWRRWWRRWWRRWWRRWWRRWWRRWWRRWWRRWWRRWWRRR",
"RRRWWRRWWRRWWRRWWRRWWRRWWRRWWRRWWRRWWRRWWRRWWRRWWRRWWRRWWRRWWRRR",
"RWWRRWWRRWWRRWWRRWWRRWWRRWWRRWWRRWWRRWWRRWWRRWWRRWWRRWWRRWWRRWWR",
"RWWRRWWRRWWRRWWRRWWRRWWRRWWRRWWRRWWRRWWRRWWRRWWRRWWRRWWRRWWRRWWR",
"RRRWWRRWWRRWWRRWWRRWWRRWWRRWWRRWWRRWWRRWWRRWWRRWWRRWWRRWWRRWWRRR",
"RRRWWRRWWRRWWRRWWRRWWRRWWRRWWRRWWRRWWRRWWRRWWRRWWRRWWRRWWRRWWRRR",
"RWWRRWWRRWWRRWWRRWWRRWWRRWWRRWWRRWWRRWWRRWWRRWWRRWWRRWWRRWWRRWWR",
"RWWRRWWRRWWRRWWRRWWRRWWRRWWRRWWRRWWRRWWRRWWRRWWRRWWRRWWRRWWRRWWR",
"RRRWWRRWWRRWWRRWWRRWWRRWWRRWWRRWWRRWWRRWWRRWWRRWWRRWWRRWWRRWWRRR",
"RRRWWRRWWRRWWRRWWRRWWRRWWRRWWRRWWRRWWRRWWRRWWRRWWRRWWRRWWRRWWRRR",
"RWWRRWWRRWWRRWWRRWWRRWWRRWWRRWWRRWWRRWWRRWWRRWWRRWWRRWWRRWWRRWWR",
"RWWRRWWRRWWRRWWRRWWRRWWRRWWRRWWRRWWRRWWRRWWRRWWRRWWRRWWRRWWRRWWR",
"RRRWWRRWWRRWWRRWWRRWWRRWWRRWWRRWWRRWWRRWWRRWWRRWWRRWWRRWWRRWWRRR",
"RRRWWRRWWRRWWRRWWRRWWRRWWRRWWRRWWRRWWRRWWRRWWRRWWRRWWRRWWRRWWRRR",
"RWWRRWWRRWWRRWWRRWWRRWWRRWWRRWWRRWWRRWWRRWWRRWWRRWWRRWWRRWWRRWWR",
"RWWRRWWRRWWRRWWRRWWRRWWRRWWRRWWRRWWRRWWRRWWRRWWRRWWRRWWRRWWRRWWR",
"RRRWWRRWWRRWWRRWWRRWWRRWWRRWWRRWWRRWWRRWWRRWWRRWWRRWWRRWWRRWWRRR",
"RRRWWRRWWRRWWRRWWRRWWRRWWRRWWRRWWRRWWRRWWRRWWRRWWRRWWRRWWRRWWRRR",
"RWWRRWWRRWWRRWWRRWWRRWWRRWWRRWWRRWWRRWWRRWWRRWWRRWWRRWWRRWWRRWWR",
"RWWRRWWRRWWRRWWRRWWRRWWRRWWRRWWRRWWRRWWRRWWRRWWRRWWRRWWRRWWRRWWR",
"RRRWWRRWWRRWWRRWWRRWWRRWWRRWWRRWWRRWWRRWWRRWWRRWWRRWWRRWWRRWWRRR",
"RRRWWRRWWRRWWRRWWRRWWRRWWRRWWRRWWRRWWRRWWRRWWRRWWRRWWRRWWRRWWRRR",
"RWWRRWWRRWWRRWWRRWWRRWWRRWWRRWWRRWWRRWWRRWWRRWWRRWWRRWWRRWWRRWWR",
"RWWRRWWRRWWRRWWRRWWRRWWRRWWRRWWRRWWRRWWRRWWRRWWRRWWRRWWRRWWRRWWR",
"RRRWWRRWWRRWWRRWWRRWWRRWWRRWWRRWWRRWWRRWWRRWWRRWWRRWWRRWWRRWWRRR",
"RRRWWRRWWRRWWRRWWRRWWRRWWRRWWRRWWRRWWRRWWRRWWRRWWRRWWRRWWRRWWRRR",
"RWWRRWWRRWWRRWWRRWWRRWWRRWWRRWWRRWWRRWWRRWWRRWWRRWWRRWWRRWWRRWWR",
"RWWRRWWRRWWRRWWRRWWRRWWRRWWRRWWRRWWRRWWRRWWRRWWRRWWRRWWRRWWRRWWR",
"RRRWWRRWWRRWWRRWWRRWWRRWWRRWWRRWWRRWWRRWWRRWWRRWWRRWWRRWWRRWWRRR",
"RRRWWRRWWRRWWRRWWRRWWRRWWRRWWRRWWRRWWRRWWRRWWRRWWRRWWRRWWRRWWRRR",
"RWWRRWWRRWWRRWWRRWWRRWWRRWWRRWWRRWWRRWWRRWWRRWWRRWWRRWWRRWWRRWWR",
"RWWRRWWRRWWRRWWRRWWRRWWRRWWRRWWRRWWRRWWRRWWRRWWRRWWRRWWRRWWRRWWR",
"RRRWWRRWWRRWWRRWWRRWWRRWWRRWWRRWWRRWWRRWWRRWWRRWWRRWWRRWWRRWWRRR",
"RRRWWRRWWRRWWRRWWRRWWRRWWRRWWRRWWRRWWRRWWRRWWRRWWRRWWRRWWRRWWRRR",
"RWWRRWWRRWWRRWWRRWWRRWWRRWWRRWWRRWWRRWWRRWWRRWWRRWWRRWWRRWWRRWWR",
"RWWRRWWRRWWRRWWRRWWRRWWRRWWRRWWRRWWRRWWRRWWRRWWRRWWRRWWRRWWRRWWR",
"RRRWWRRWWRRWWRRWWRRWWRRWWRRWWRRWWRRWWRRWWRRWWRRWWRRWWRRWWRRWWRRR",
"RRRWWRRWWRRWWRRWWRRWWRRWWRRWWRRWWRRWWRRWWRRWWRRWWRRWWRRWWRRWWRRR",
"RWWRRWWRRWWRRWWRRWWRRWWRRWWRRWWRRWWRRWWRRWWRRWWRRWWRRWWRRWWRRWWR",
"RWWRRWWRRWWRRWWRRWWRRWWRRWWRRWWRRWWRRWWRRWWRRWWRRWWRRWWRRWWRRWWR",
"RRRWWRRWWRRWWRRWWRRWWRRWWRRWWRRWWRRWWRRWWRRWWRRWWRRWWRRWWRRWWRRR",
"RRRWWRRWWRRWWRRWWRRWWRRWWRRWWRRWWRRWWRRWWRRWWRRWWRRWWRRWWRRWWRRR",
"RWWRRWWRRWWRRWWRRWWRRWWRRWWRRWWRRWWRRWWRRWWRRWWRRWWRRWWRRWWRRWWR",
"RWWRRWWRRWWRRWWRRWWRRWWRRWWRRWWRRWWRRWWRRWWRRWWRRWWRRWWRRWWRRWWR",
"RRRWWRRWWRRWWRRWWRRWWRRWWRRWWRRWWRRWWRRWWRRWWRRWWRRWWRRWWRRWWRRR",
"RRRWWRRWWRRWWRRWWRRWWRRWWRRWWRRWWRRWWRRWWRRWWRRWWRRWWRRWWRRWWRRR",
"RWWRRWWRRWWRRWWRRWWRRWWRRWWRRWWRRWWRRWWRRWWRRWWRRWWRRWWRRWWRRWWR",
"RWWRRWWRRWWRRWWRRWWRRWWRRWWRRWWRRWWRRWWRRWWRRWWRRWWRRWWRRWWRRWWR",
"RRRWWRRWWRRWWRRWWRRWWRRWWRRWWRRWWRRWWRRWWRRWWRRWWRRWWRRWWRRWWRRR",
"RRRWWRRWWRRWWRRWWRRWWRRWWRRWWRRWWRRWWRRWWRRWWRRWWRRWWRRWWRRWWRRR",
"RWWRRWWRRWWRRWWRRWWRRWWRRWWRRWWRRWWRRWWRRWWRRWWRRWWRRWWRRWWRRWWR",
"RWWRRWWRRWWRRWWRRWWRRWWRRWWRRWWRRWWRRWWRRWWRRWWRRWWRRWWRRWWRRWWR",
"RRRWWRRWWRRWWRRWWRRWWRRWWRRWWRRWWRRWWRRWWRRWWRRWWRRWWRRWWRRWWRRR",
"RRRWWRRWWRRWWRRWWRRWWRRWWRRWWRRWWRRWWRRWWRRWWRRWWRRWWRRWWRRWWRRR",
"RWWRRWWRRWWRRWWRRWWRRWWRRWWRRWWRRWWRRWWRRWWRRWWRRWWRRWWRRWWRRWWR",
"RWWRRWWRRWWRRWWRRWWRRWWRRWWRRWWRRWWRRWWRRWWRRWWRRWWRRWWRRWWRRWWR",
"RRRWWRRWWRRWWRRWWRRWWRRWWRRWWRRWWRRWWRRWWRRWWRRWWRRWWRRWWRRWWRRR",
"RRRWWRRWWRRWWRRWWRRWWRRWWRRWWRRWWRRWWRRWWRRWWRRWWRRWWRRWWRRWWRRR",
"RWWRRWWRRWWRRWWRRWWRRWWRRWWRRWWRRWWRRWWRRWWRRWWRRWWRRWWRRWWRRWWR",
"RWWRRWWRRWWRRWWRRWWRRWWRRWWRRWWRRWWRRWWRRWWRRWWRRWWRRWWRRWWRRWWR",
"RRRRRRRRRRRRRRRRRRRRRRRRRRRRRRRRRRRRRRRRRRRRRRRRRRRRRRRRRRRRRRRR",
};